<svg xmlns="http://www.w3.org/2000/svg" viewBox="0 0 100 100">
  <defs>
    <linearGradient id="gradient" x1="0%" y1="0%" x2="100%" y2="100%">
      <stop offset="0%" style="stop-color:#ec4899;stop-opacity:1" />
      <stop offset="100%" style="stop-color:#a855f7;stop-opacity:1" />
    </linearGradient>
  </defs>
  <circle cx="50" cy="50" r="45" fill="url(#gradient)"/>
  <path d="M50 25 C35 25 25 35 25 50 C25 65 35 75 50 75 C55 75 60 73 63 70 L55 62 C53 64 51 65 50 65 C42 65 35 58 35 50 C35 42 42 35 50 35 C58 35 65 42 65 50 L75 50 C75 35 65 25 50 25Z" fill="white"/>
  <circle cx="50" cy="50" r="8" fill="white"/>
</svg>
